# xmcd
#
# Track frame offsets:
#	150
#	1631
#	5328
#	8624
#	13162
#	14884
#	18755
#	22887
#	26470
#	31554
#	37559
#	45029
#	49448
#	54215
#	58170
#	60075
#	64218
#	69641
#	74537
#	80640
#	88588
#	93530
#	96453
#	99011
#	108568
#	111797
#	116713
#	122550
#
# Disc length: 1690 seconds
#
# Revision: 0
# Processed by: cddbd v1.5.2PL0 Copyright (c) Steve Scherf et al.
# Submitted via: audiograbber 1.83.01
#
DISCID=4d06981c
DTITLE=Josef Haberstock - Broadway-Joe - Sample CD
DYEAR=2008
DGENRE=Kabarett
TTITLE0=01
TTITLE1=02
TTITLE2=03
TTITLE3=04
TTITLE4=05
TTITLE5=06
TTITLE6=07
TTITLE7=08
TTITLE8=09
TTITLE9=10
TTITLE10=11
TTITLE11=12
TTITLE12=13
TTITLE13=14
TTITLE14=15
TTITLE15=16
TTITLE16=17
TTITLE17=18
TTITLE18=19
TTITLE19=20
TTITLE20=21
TTITLE21=22
TTITLE22=23
TTITLE23=24
TTITLE24=25
TTITLE25=26
TTITLE26=27
TTITLE27=28
EXTD=Knödelhoibar-Version. Diese CD ist ein Zusammenschnitt aus 6 verschiedenen
EXTD=Cds.
EXTT0=
EXTT1=
EXTT2=
EXTT3=
EXTT4=
EXTT5=
EXTT6=
EXTT7=
EXTT8=
EXTT9=
EXTT10=
EXTT11=
EXTT12=
EXTT13=
EXTT14=
EXTT15=
EXTT16=
EXTT17=
EXTT18=
EXTT19=
EXTT20=
EXTT21=
EXTT22=
EXTT23=
EXTT24=
EXTT25=
EXTT26=
EXTT27=
PLAYORDER=
